<svg width="120" height="120" viewBox="0 0 120 120" fill="none" xmlns="http://www.w3.org/2000/svg">
<path d="M89.9969 39.9986C98.2809 39.9986 104.996 33.2831 104.996 24.9992C104.996 16.7152 98.2809 9.99966 89.9969 9.99966C81.7129 9.99966 74.9974 16.7152 74.9974 24.9992C74.9974 33.2831 81.7129 39.9986 89.9969 39.9986Z" stroke="#1565C0" stroke-width="7.49974" stroke-linecap="round" stroke-linejoin="round"/>
<path d="M29.999 74.9975C38.283 74.9975 44.9985 68.282 44.9985 59.998C44.9985 51.714 38.283 44.9985 29.999 44.9985C21.715 44.9985 14.9995 51.714 14.9995 59.998C14.9995 68.282 21.715 74.9975 29.999 74.9975Z" stroke="#1565C0" stroke-width="7.49974" stroke-linecap="round" stroke-linejoin="round"/>
<path d="M89.9969 109.996C98.2809 109.996 104.996 103.281 104.996 94.9968C104.996 86.7128 98.2809 79.9973 89.9969 79.9973C81.7129 79.9973 74.9974 86.7128 74.9974 94.9968C74.9974 103.281 81.7129 109.996 89.9969 109.996Z" stroke="#1565C0" stroke-width="7.49974" stroke-linecap="round" stroke-linejoin="round"/>
<path d="M42.9485 67.5477L77.0973 87.447" stroke="#1565C0" stroke-width="7.49974" stroke-linecap="round" stroke-linejoin="round"/>
<path d="M77.0473 32.5489L42.9485 52.4482" stroke="#1565C0" stroke-width="7.49974" stroke-linecap="round" stroke-linejoin="round"/>
</svg>
