<svg width="80" height="80" viewBox="0 0 80 80" fill="none" xmlns="http://www.w3.org/2000/svg">
<path d="M71.3871 36.4C71.9837 36.1368 72.49 35.7044 72.8432 35.1563C73.1965 34.6082 73.3812 33.9685 73.3744 33.3164C73.3677 32.6643 73.1698 32.0286 72.8053 31.4879C72.4408 30.9472 71.9257 30.5253 71.3237 30.2745L42.7589 17.2635C41.8906 16.8674 40.9472 16.6624 39.9928 16.6624C39.0383 16.6624 38.095 16.8674 37.2266 17.2635L8.66514 30.2612C8.07181 30.521 7.56706 30.9482 7.21263 31.4903C6.85819 32.0325 6.66943 32.6662 6.66943 33.3139C6.66943 33.9617 6.85819 34.5954 7.21263 35.1376C7.56706 35.6797 8.07181 36.1069 8.66514 36.3667L37.2266 49.391C38.095 49.7871 39.0383 49.9921 39.9928 49.9921C40.9472 49.9921 41.8906 49.7871 42.7589 49.391L71.3871 36.4Z" stroke="white" stroke-width="4.99909" stroke-linecap="round" stroke-linejoin="round"/>
<path d="M73.3201 33.3273V53.3236" stroke="white" stroke-width="4.99909" stroke-linecap="round" stroke-linejoin="round"/>
<path d="M19.9963 41.6591V53.3236C19.9963 55.9753 22.1031 58.5184 25.8531 60.3934C29.6032 62.2684 34.6893 63.3218 39.9927 63.3218C45.2961 63.3218 50.3822 62.2684 54.1323 60.3934C57.8823 58.5184 59.9891 55.9753 59.9891 53.3236V41.6591" stroke="white" stroke-width="4.99909" stroke-linecap="round" stroke-linejoin="round"/>
</svg>
